<svg width="512" height="512" version="1.1" xmlns="http://www.w3.org/2000/svg" desc="Created with imagetracer.js version 1.2.6" ><path fill="rgb(0,0,0)" stroke="rgb(0,0,0)" stroke-width="1" opacity="0" d="M 0 0 L 210 0.5 Q 193.3 3.8 184 14.5 L 177 24.5 L 165 62 L 69.5 62 Q 49.7 65.7 40 79.5 Q 33.1 87.6 31 100.5 L 31 140.5 L 36.5 149 L 42.5 152 L 62 152 L 63 157.5 L 63 168.5 L 64 169.5 L 64 180.5 L 65 181.5 L 65 192.5 L 66 193.5 L 66 204.5 L 67 205.5 L 70 253.5 L 71 254.5 L 71 265.5 L 72 266.5 L 72 277.5 L 73 278.5 L 73 289.5 L 74 290.5 L 74 301.5 L 75 302.5 L 75 313.5 L 76 314.5 L 76 325.5 L 77 326.5 L 77 337.5 L 78 338.5 L 78 350.5 L 79 351.5 L 79 362.5 L 80 363.5 L 84 422.5 L 85 423.5 L 85 434.5 L 86 435.5 L 86 446.5 L 87 447.5 L 87 458.5 L 88 459.5 L 88 470.5 L 90 480.5 L 95 491.5 L 104.5 502 Q 112.4 509.6 126 511.5 L 0 512 L 0 0 Z " /><path fill="rgb(0,0,0)" stroke="rgb(0,0,0)" stroke-width="1" opacity="0" d="M 302.5 0 L 512 0 L 512 512 L 386 511.5 L 398.5 508 L 414 495.5 L 421 483.5 L 424 470.5 L 424 459.5 L 425 458.5 L 425 447.5 L 426 446.5 L 426 435.5 L 427 434.5 L 427 423.5 L 428 422.5 L 428 411.5 L 429 410.5 L 429 399.5 L 430 398.5 L 430 387.5 L 431 386.5 L 431 375.5 L 432 374.5 L 432 363.5 L 433 362.5 L 433 350.5 L 434 349.5 L 434 338.5 L 435 337.5 L 435 326.5 L 436 325.5 L 436 314.5 L 437 313.5 L 437 302.5 L 438 301.5 L 438 290.5 L 439 289.5 L 439 278.5 L 440 277.5 L 440 266.5 L 441 265.5 L 441 254.5 L 442 253.5 L 445 205.5 L 446 204.5 L 446 193.5 L 447 192.5 L 447 181.5 L 448 180.5 L 448 169.5 L 449 168.5 L 449 157.5 L 450 152 L 469.5 152 L 478 146.5 L 481 140.5 L 481 100.5 Q 477.3 80.7 463.5 71 Q 455.4 64.1 442.5 62 L 347 62 L 335 24.5 L 324.5 11 L 317.5 6 Q 311.5 2 302.5 1 L 302.5 0 Z " /><path fill="rgb(0,0,0)" stroke="rgb(0,0,0)" stroke-width="1" opacity="0" d="M 214.5 30 L 297.5 30 L 307 36.5 L 315 62 L 197.5 62 L 197 59.5 L 203 40.5 L 208.5 33 L 214.5 30 Z " /><path fill="rgb(0,0,0)" stroke="rgb(0,0,0)" stroke-width="1" opacity="0" d="M 73.5 92 L 438.5 92 L 447 96 L 451 104.5 L 451 122 L 61.5 122 L 61 121.5 L 61 104.5 L 65 96 L 73.5 92 Z " /><path fill="rgb(0,0,0)" stroke="rgb(0,0,0)" stroke-width="1" opacity="0" d="M 92.5 152 L 420 152.5 L 419 153.5 L 419 164.5 L 418 165.5 L 418 176.5 L 417 177.5 L 417 188.5 L 416 189.5 L 416 200.5 L 415 201.5 L 415 213.5 L 414 214.5 L 411 261.5 L 410 262.5 L 410 273.5 L 409 274.5 L 405 333.5 L 404 334.5 L 404 346.5 L 403 347.5 L 403 358.5 L 402 359.5 L 402 370.5 L 401 371.5 L 401 382.5 L 400 383.5 L 400 394.5 L 399 395.5 L 399 406.5 L 398 407.5 L 394 466.5 L 391 475.5 L 386.5 480 L 381.5 482 L 130.5 482 Q 124 480.5 121 475.5 L 118 467.5 L 118 455.5 L 117 454.5 L 117 443.5 L 116 442.5 L 116 431.5 L 115 430.5 L 115 419.5 L 114 418.5 L 114 407.5 L 113 406.5 L 113 395.5 L 112 394.5 L 108 335.5 L 107 334.5 L 107 322.5 L 106 321.5 L 106 310.5 L 105 309.5 L 105 298.5 L 104 297.5 L 104 286.5 L 103 285.5 L 103 274.5 L 102 273.5 L 102 262.5 L 101 261.5 L 97 202.5 L 96 201.5 L 96 189.5 L 95 188.5 L 93 153.5 L 92.5 152 Z M 163 182 L 157 185 L 151 194 L 151 441 L 154 447 L 163 452 Q 172 453 176 449 L 181 441 L 181 194 L 178 188 Q 174 181 163 182 Z M 253 182 L 247 185 L 241 194 L 241 441 L 244 447 L 253 452 Q 262 453 266 449 L 271 441 L 271 194 L 268 188 Q 264 181 253 182 Z M 343 182 L 337 185 L 331 194 L 331 441 L 334 447 L 343 452 Q 352 453 356 449 L 361 441 L 361 194 L 358 188 Q 354 181 343 182 Z " /><path fill="rgb(0,0,0)" stroke="rgb(0,0,0)" stroke-width="1" opacity="0.7764705882352941" d="M 210.5 0 L 215 0.5 L 210.5 1 L 210.5 0 Z " /><path fill="rgb(0,0,0)" stroke="rgb(0,0,0)" stroke-width="1" opacity="0.7764705882352941" d="M 297.5 0 L 302 0.5 L 297.5 1 L 297.5 0 Z " /><path fill="rgb(0,0,0)" stroke="rgb(0,0,0)" stroke-width="1" opacity="0.7764705882352941" d="M 191.5 8 L 190.5 10 L 191.5 8 Z " /><path fill="rgb(0,0,0)" stroke="rgb(0,0,0)" stroke-width="1" opacity="0.7764705882352941" d="M 320.5 8 L 321.5 10 L 320.5 8 Z " /><path fill="rgb(0,0,0)" stroke="rgb(0,0,0)" stroke-width="1" opacity="0.7764705882352941" d="M 187.5 11 L 184.5 15 L 187.5 11 Z " /><path fill="rgb(0,0,0)" stroke="rgb(0,0,0)" stroke-width="1" opacity="0.7764705882352941" d="M 324.5 11 L 327.5 15 L 324.5 11 Z " /><path fill="rgb(0,0,0)" stroke="rgb(0,0,0)" stroke-width="1" opacity="0.7764705882352941" d="M 181.5 18 L 180.5 20 L 181.5 18 Z " /><path fill="rgb(0,0,0)" stroke="rgb(0,0,0)" stroke-width="1" opacity="0.7764705882352941" d="M 330.5 18 L 331.5 20 L 330.5 18 Z " /><path fill="rgb(0,0,0)" stroke="rgb(0,0,0)" stroke-width="1" opacity="0.7764705882352941" d="M 178.5 23 L 178 24.5 L 177.5 26 L 177 24.5 L 178.5 23 Z " /><path fill="rgb(0,0,0)" stroke="rgb(0,0,0)" stroke-width="1" opacity="0.7764705882352941" d="M 333.5 23 L 335 25.5 L 334 25.5 L 333.5 23 Z " /><path fill="rgb(0,0,0)" stroke="rgb(0,0,0)" stroke-width="1" opacity="0.7764705882352941" d="M 210.5 31 L 209.5 33 L 210.5 31 Z " /><path fill="rgb(0,0,0)" stroke="rgb(0,0,0)" stroke-width="1" opacity="0.7764705882352941" d="M 301.5 31 L 302.5 33 L 301.5 31 Z " /><path fill="rgb(0,0,0)" stroke="rgb(0,0,0)" stroke-width="1" opacity="0.7764705882352941" d="M 304.5 33 L 305.5 35 L 304.5 33 Z " /><path fill="rgb(0,0,0)" stroke="rgb(0,0,0)" stroke-width="1" opacity="0.7764705882352941" d="M 69.5 62 L 74 62.5 L 69.5 63 L 69.5 62 Z " /><path fill="rgb(0,0,0)" stroke="rgb(0,0,0)" stroke-width="1" opacity="0.7764705882352941" d="M 438.5 62 L 443 62.5 L 438.5 63 L 438.5 62 Z " /><path fill="rgb(0,0,0)" stroke="rgb(0,0,0)" stroke-width="1" opacity="0.7764705882352941" d="M 54.5 67 L 53.5 69 L 54.5 67 Z " /><path fill="rgb(0,0,0)" stroke="rgb(0,0,0)" stroke-width="1" opacity="0.7764705882352941" d="M 48.5 71 L 45.5 75 L 48.5 71 Z " /><path fill="rgb(0,0,0)" stroke="rgb(0,0,0)" stroke-width="1" opacity="0.7764705882352941" d="M 463.5 71 L 465.5 74 L 463.5 71 Z " /><path fill="rgb(0,0,0)" stroke="rgb(0,0,0)" stroke-width="1" opacity="0.7764705882352941" d="M 43.5 76 L 40.5 80 L 43.5 76 Z " /><path fill="rgb(0,0,0)" stroke="rgb(0,0,0)" stroke-width="1" opacity="0.7764705882352941" d="M 469.5 77 L 471.5 80 L 469.5 77 Z " /><path fill="rgb(0,0,0)" stroke="rgb(0,0,0)" stroke-width="1" opacity="0.7764705882352941" d="M 37.5 84 L 36.5 86 L 37.5 84 Z " /><path fill="rgb(0,0,0)" stroke="rgb(0,0,0)" stroke-width="1" opacity="0.7764705882352941" d="M 474.5 84 L 475.5 86 L 474.5 84 Z " /><path fill="rgb(0,0,0)" stroke="rgb(0,0,0)" stroke-width="1" opacity="0.7764705882352941" d="M 67.5 94 L 66.5 96 L 67.5 94 Z " /><path fill="rgb(0,0,0)" stroke="rgb(0,0,0)" stroke-width="1" opacity="0.7764705882352941" d="M 444.5 94 L 445.5 96 L 444.5 94 Z " /><path fill="rgb(0,0,0)" stroke="rgb(0,0,0)" stroke-width="1" opacity="0.7764705882352941" d="M 64.5 97 L 63.5 99 L 64.5 97 Z " /><path fill="rgb(0,0,0)" stroke="rgb(0,0,0)" stroke-width="1" opacity="0.7764705882352941" d="M 447.5 97 L 448.5 99 L 447.5 97 Z " /><path fill="rgb(0,0,0)" stroke="rgb(0,0,0)" stroke-width="1" opacity="0.7764705882352941" d="M 31.5 100 L 32 104.5 L 31 104.5 L 31.5 100 Z " /><path fill="rgb(0,0,0)" stroke="rgb(0,0,0)" stroke-width="1" opacity="0.7764705882352941" d="M 480.5 100 L 481 104.5 L 480 104.5 L 480.5 100 Z " /><path fill="rgb(0,0,0)" stroke="rgb(0,0,0)" stroke-width="1" opacity="0.7764705882352941" d="M 32.5 143 L 33.5 145 L 32.5 143 Z " /><path fill="rgb(0,0,0)" stroke="rgb(0,0,0)" stroke-width="1" opacity="0.7764705882352941" d="M 34.5 146 L 36.5 149 L 34.5 146 Z " /><path fill="rgb(0,0,0)" stroke="rgb(0,0,0)" stroke-width="1" opacity="0.7764705882352941" d="M 477.5 146 L 475.5 149 L 477.5 146 Z " /><path fill="rgb(0,0,0)" stroke="rgb(0,0,0)" stroke-width="1" opacity="0.7764705882352941" d="M 38.5 149 L 39.5 151 L 38.5 149 Z " /><path fill="rgb(0,0,0)" stroke="rgb(0,0,0)" stroke-width="1" opacity="0.7764705882352941" d="M 473.5 149 L 472.5 151 L 473.5 149 Z " /><path fill="rgb(0,0,0)" stroke="rgb(0,0,0)" stroke-width="1" opacity="0.7764705882352941" d="M 62.5 152 L 63 156.5 L 62 156.5 L 62.5 152 Z " /><path fill="rgb(0,0,0)" stroke="rgb(0,0,0)" stroke-width="1" opacity="0.7764705882352941" d="M 449.5 152 L 450 156.5 L 449 156.5 L 449.5 152 Z " /><path fill="rgb(0,0,0)" stroke="rgb(0,0,0)" stroke-width="1" opacity="0.7764705882352941" d="M 92.5 153 L 93 158.5 L 92 158.5 L 92.5 153 Z " /><path fill="rgb(0,0,0)" stroke="rgb(0,0,0)" stroke-width="1" opacity="0.7764705882352941" d="M 419.5 153 L 420 158.5 L 419 158.5 L 419.5 153 Z " /><path fill="rgb(0,0,0)" stroke="rgb(0,0,0)" stroke-width="1" opacity="0.7764705882352941" d="M 63.5 163 L 64 168.5 L 63 168.5 L 63.5 163 Z " /><path fill="rgb(0,0,0)" stroke="rgb(0,0,0)" stroke-width="1" opacity="0.7764705882352941" d="M 448.5 163 L 449 168.5 L 448 168.5 L 448.5 163 Z " /><path fill="rgb(0,0,0)" stroke="rgb(0,0,0)" stroke-width="1" opacity="0.7764705882352941" d="M 93.5 165 L 94 170.5 L 93 170.5 L 93.5 165 Z " /><path fill="rgb(0,0,0)" stroke="rgb(0,0,0)" stroke-width="1" opacity="0.7764705882352941" d="M 418.5 165 L 419 170.5 L 418 170.5 L 418.5 165 Z " /><path fill="rgb(0,0,0)" stroke="rgb(0,0,0)" stroke-width="1" opacity="0.7764705882352941" d="M 64.5 175 L 65 180.5 L 64 180.5 L 64.5 175 Z " /><path fill="rgb(0,0,0)" stroke="rgb(0,0,0)" stroke-width="1" opacity="0.7764705882352941" d="M 447.5 175 L 448 180.5 L 447 180.5 L 447.5 175 Z " /><path fill="rgb(0,0,0)" stroke="rgb(0,0,0)" stroke-width="1" opacity="0.7764705882352941" d="M 94.5 177 L 95 182.5 L 94 182.5 L 94.5 177 Z " /><path fill="rgb(0,0,0)" stroke="rgb(0,0,0)" stroke-width="1" opacity="0.7764705882352941" d="M 417.5 177 L 418 182.5 L 417 182.5 L 417.5 177 Z " /><path fill="rgb(0,0,0)" stroke="rgb(0,0,0)" stroke-width="1" opacity="0.7764705882352941" d="M 172.5 183 L 173.5 185 L 172.5 183 Z " /><path fill="rgb(0,0,0)" stroke="rgb(0,0,0)" stroke-width="1" opacity="0.7764705882352941" d="M 262.5 183 L 263.5 185 L 262.5 183 Z " /><path fill="rgb(0,0,0)" stroke="rgb(0,0,0)" stroke-width="1" opacity="0.7764705882352941" d="M 352.5 183 L 353.5 185 L 352.5 183 Z " /><path fill="rgb(0,0,0)" stroke="rgb(0,0,0)" stroke-width="1" opacity="0.7764705882352941" d="M 156.5 185 L 154.5 188 L 156.5 185 Z " /><path fill="rgb(0,0,0)" stroke="rgb(0,0,0)" stroke-width="1" opacity="0.7764705882352941" d="M 175.5 185 L 177.5 188 L 175.5 185 Z " /><path fill="rgb(0,0,0)" stroke="rgb(0,0,0)" stroke-width="1" opacity="0.7764705882352941" d="M 246.5 185 L 244.5 188 L 246.5 185 Z " /><path fill="rgb(0,0,0)" stroke="rgb(0,0,0)" stroke-width="1" opacity="0.7764705882352941" d="M 265.5 185 L 267.5 188 L 265.5 185 Z " /><path fill="rgb(0,0,0)" stroke="rgb(0,0,0)" stroke-width="1" opacity="0.7764705882352941" d="M 336.5 185 L 334.5 188 L 336.5 185 Z " /><path fill="rgb(0,0,0)" stroke="rgb(0,0,0)" stroke-width="1" opacity="0.7764705882352941" d="M 355.5 185 L 357.5 188 L 355.5 185 Z " /><path fill="rgb(0,0,0)" stroke="rgb(0,0,0)" stroke-width="1" opacity="0.7764705882352941" d="M 65.5 187 L 66 192.5 L 65 192.5 L 65.5 187 Z " /><path fill="rgb(0,0,0)" stroke="rgb(0,0,0)" stroke-width="1" opacity="0.7764705882352941" d="M 446.5 187 L 447 192.5 L 446 192.5 L 446.5 187 Z " /><path fill="rgb(0,0,0)" stroke="rgb(0,0,0)" stroke-width="1" opacity="0.7764705882352941" d="M 95.5 189 L 96 194.5 L 95 194.5 L 95.5 189 Z " /><path fill="rgb(0,0,0)" stroke="rgb(0,0,0)" stroke-width="1" opacity="0.7764705882352941" d="M 153.5 189 L 152.5 191 L 153.5 189 Z " /><path fill="rgb(0,0,0)" stroke="rgb(0,0,0)" stroke-width="1" opacity="0.7764705882352941" d="M 243.5 189 L 242.5 191 L 243.5 189 Z " /><path fill="rgb(0,0,0)" stroke="rgb(0,0,0)" stroke-width="1" opacity="0.7764705882352941" d="M 333.5 189 L 332.5 191 L 333.5 189 Z " /><path fill="rgb(0,0,0)" stroke="rgb(0,0,0)" stroke-width="1" opacity="0.7764705882352941" d="M 416.5 189 L 417 194.5 L 416 194.5 L 416.5 189 Z " /><path fill="rgb(0,0,0)" stroke="rgb(0,0,0)" stroke-width="1" opacity="0.7764705882352941" d="M 66.5 199 L 67 204.5 L 66 204.5 L 66.5 199 Z " /><path fill="rgb(0,0,0)" stroke="rgb(0,0,0)" stroke-width="1" opacity="0.7764705882352941" d="M 445.5 199 L 446 204.5 L 445 204.5 L 445.5 199 Z " /><path fill="rgb(0,0,0)" stroke="rgb(0,0,0)" stroke-width="1" opacity="0.7764705882352941" d="M 415.5 201 L 416 206.5 L 415 206.5 L 415.5 201 Z " /><path fill="rgb(0,0,0)" stroke="rgb(0,0,0)" stroke-width="1" opacity="0.7764705882352941" d="M 96.5 202 L 97 207.5 L 96 207.5 L 96.5 202 Z " /><path fill="rgb(0,0,0)" stroke="rgb(0,0,0)" stroke-width="1" opacity="0.7764705882352941" d="M 444.5 211 L 445 217.5 L 444 217.5 L 444.5 211 Z " /><path fill="rgb(0,0,0)" stroke="rgb(0,0,0)" stroke-width="1" opacity="0.7764705882352941" d="M 67.5 212 L 68 217.5 L 67 217.5 L 67.5 212 Z " /><path fill="rgb(0,0,0)" stroke="rgb(0,0,0)" stroke-width="1" opacity="0.7764705882352941" d="M 97.5 214 L 98 219.5 L 97 219.5 L 97.5 214 Z " /><path fill="rgb(0,0,0)" stroke="rgb(0,0,0)" stroke-width="1" opacity="0.7764705882352941" d="M 414.5 214 L 415 219.5 L 414 219.5 L 414.5 214 Z " /><path fill="rgb(0,0,0)" stroke="rgb(0,0,0)" stroke-width="1" opacity="0.7764705882352941" d="M 68.5 224 L 69 229.5 L 68 229.5 L 68.5 224 Z " /><path fill="rgb(0,0,0)" stroke="rgb(0,0,0)" stroke-width="1" opacity="0.7764705882352941" d="M 443.5 224 L 444 229.5 L 443 229.5 L 443.5 224 Z " /><path fill="rgb(0,0,0)" stroke="rgb(0,0,0)" stroke-width="1" opacity="0.7764705882352941" d="M 98.5 226 L 99 231.5 L 98 231.5 L 98.5 226 Z " /><path fill="rgb(0,0,0)" stroke="rgb(0,0,0)" stroke-width="1" opacity="0.7764705882352941" d="M 413.5 226 L 414 231.5 L 413 231.5 L 413.5 226 Z " /><path fill="rgb(0,0,0)" stroke="rgb(0,0,0)" stroke-width="1" opacity="0.7764705882352941" d="M 69.5 236 L 70 241.5 L 69 241.5 L 69.5 236 Z " /><path fill="rgb(0,0,0)" stroke="rgb(0,0,0)" stroke-width="1" opacity="0.7764705882352941" d="M 442.5 236 L 443 241.5 L 442 241.5 L 442.5 236 Z " /><path fill="rgb(0,0,0)" stroke="rgb(0,0,0)" stroke-width="1" opacity="0.7764705882352941" d="M 99.5 238 L 100 243.5 L 99 243.5 L 99.5 238 Z " /><path fill="rgb(0,0,0)" stroke="rgb(0,0,0)" stroke-width="1" opacity="0.7764705882352941" d="M 412.5 238 L 413 243.5 L 412 243.5 L 412.5 238 Z " /><path fill="rgb(0,0,0)" stroke="rgb(0,0,0)" stroke-width="1" opacity="0.7764705882352941" d="M 70.5 248 L 71 253.5 L 70 253.5 L 70.5 248 Z " /><path fill="rgb(0,0,0)" stroke="rgb(0,0,0)" stroke-width="1" opacity="0.7764705882352941" d="M 441.5 248 L 442 253.5 L 441 253.5 L 441.5 248 Z " /><path fill="rgb(0,0,0)" stroke="rgb(0,0,0)" stroke-width="1" opacity="0.7764705882352941" d="M 100.5 250 L 101 255.5 L 100 255.5 L 100.5 250 Z " /><path fill="rgb(0,0,0)" stroke="rgb(0,0,0)" stroke-width="1" opacity="0.7764705882352941" d="M 411.5 250 L 412 255.5 L 411 255.5 L 411.5 250 Z " /><path fill="rgb(0,0,0)" stroke="rgb(0,0,0)" stroke-width="1" opacity="0.7764705882352941" d="M 71.5 260 L 72 265.5 L 71 265.5 L 71.5 260 Z " /><path fill="rgb(0,0,0)" stroke="rgb(0,0,0)" stroke-width="1" opacity="0.7764705882352941" d="M 440.5 260 L 441 265.5 L 440 265.5 L 440.5 260 Z " /><path fill="rgb(0,0,0)" stroke="rgb(0,0,0)" stroke-width="1" opacity="0.7764705882352941" d="M 101.5 262 L 102 267.5 L 101 267.5 L 101.5 262 Z " /><path fill="rgb(0,0,0)" stroke="rgb(0,0,0)" stroke-width="1" opacity="0.7764705882352941" d="M 410.5 262 L 411 267.5 L 410 267.5 L 410.5 262 Z " /><path fill="rgb(0,0,0)" stroke="rgb(0,0,0)" stroke-width="1" opacity="0.7764705882352941" d="M 72.5 272 L 73 277.5 L 72 277.5 L 72.5 272 Z " /><path fill="rgb(0,0,0)" stroke="rgb(0,0,0)" stroke-width="1" opacity="0.7764705882352941" d="M 439.5 272 L 440 277.5 L 439 277.5 L 439.5 272 Z " /><path fill="rgb(0,0,0)" stroke="rgb(0,0,0)" stroke-width="1" opacity="0.7764705882352941" d="M 102.5 274 L 103 279.5 L 102 279.5 L 102.5 274 Z " /><path fill="rgb(0,0,0)" stroke="rgb(0,0,0)" stroke-width="1" opacity="0.7764705882352941" d="M 409.5 274 L 410 279.5 L 409 279.5 L 409.5 274 Z " /><path fill="rgb(0,0,0)" stroke="rgb(0,0,0)" stroke-width="1" opacity="0.7764705882352941" d="M 73.5 284 L 74 289.5 L 73 289.5 L 73.5 284 Z " /><path fill="rgb(0,0,0)" stroke="rgb(0,0,0)" stroke-width="1" opacity="0.7764705882352941" d="M 438.5 284 L 439 289.5 L 438 289.5 L 438.5 284 Z " /><path fill="rgb(0,0,0)" stroke="rgb(0,0,0)" stroke-width="1" opacity="0.7764705882352941" d="M 103.5 286 L 104 291.5 L 103 291.5 L 103.5 286 Z " /><path fill="rgb(0,0,0)" stroke="rgb(0,0,0)" stroke-width="1" opacity="0.7764705882352941" d="M 408.5 286 L 409 291.5 L 408 291.5 L 408.5 286 Z " /><path fill="rgb(0,0,0)" stroke="rgb(0,0,0)" stroke-width="1" opacity="0.7764705882352941" d="M 74.5 296 L 75 301.5 L 74 301.5 L 74.5 296 Z " /><path fill="rgb(0,0,0)" stroke="rgb(0,0,0)" stroke-width="1" opacity="0.7764705882352941" d="M 437.5 296 L 438 301.5 L 437 301.5 L 437.5 296 Z " /><path fill="rgb(0,0,0)" stroke="rgb(0,0,0)" stroke-width="1" opacity="0.7764705882352941" d="M 104.5 298 L 105 303.5 L 104 303.5 L 104.5 298 Z " /><path fill="rgb(0,0,0)" stroke="rgb(0,0,0)" stroke-width="1" opacity="0.7764705882352941" d="M 407.5 298 L 408 303.5 L 407 303.5 L 407.5 298 Z " /><path fill="rgb(0,0,0)" stroke="rgb(0,0,0)" stroke-width="1" opacity="0.7764705882352941" d="M 75.5 308 L 76 313.5 L 75 313.5 L 75.5 308 Z " /><path fill="rgb(0,0,0)" stroke="rgb(0,0,0)" stroke-width="1" opacity="0.7764705882352941" d="M 436.5 308 L 437 313.5 L 436 313.5 L 436.5 308 Z " /><path fill="rgb(0,0,0)" stroke="rgb(0,0,0)" stroke-width="1" opacity="0.7764705882352941" d="M 105.5 310 L 106 315.5 L 105 315.5 L 105.5 310 Z " /><path fill="rgb(0,0,0)" stroke="rgb(0,0,0)" stroke-width="1" opacity="0.7764705882352941" d="M 406.5 310 L 407 315.5 L 406 315.5 L 406.5 310 Z " /><path fill="rgb(0,0,0)" stroke="rgb(0,0,0)" stroke-width="1" opacity="0.7764705882352941" d="M 76.5 320 L 77 325.5 L 76 325.5 L 76.5 320 Z " /><path fill="rgb(0,0,0)" stroke="rgb(0,0,0)" stroke-width="1" opacity="0.7764705882352941" d="M 435.5 320 L 436 325.5 L 435 325.5 L 435.5 320 Z " /><path fill="rgb(0,0,0)" stroke="rgb(0,0,0)" stroke-width="1" opacity="0.7764705882352941" d="M 106.5 322 L 107 327.5 L 106 327.5 L 106.5 322 Z " /><path fill="rgb(0,0,0)" stroke="rgb(0,0,0)" stroke-width="1" opacity="0.7764705882352941" d="M 405.5 322 L 406 327.5 L 405 327.5 L 405.5 322 Z " /><path fill="rgb(0,0,0)" stroke="rgb(0,0,0)" stroke-width="1" opacity="0.7764705882352941" d="M 77.5 332 L 78 337.5 L 77 337.5 L 77.5 332 Z " /><path fill="rgb(0,0,0)" stroke="rgb(0,0,0)" stroke-width="1" opacity="0.7764705882352941" d="M 434.5 332 L 435 337.5 L 434 337.5 L 434.5 332 Z " /><path fill="rgb(0,0,0)" stroke="rgb(0,0,0)" stroke-width="1" opacity="0.7764705882352941" d="M 404.5 334 L 405 339.5 L 404 339.5 L 404.5 334 Z " /><path fill="rgb(0,0,0)" stroke="rgb(0,0,0)" stroke-width="1" opacity="0.7764705882352941" d="M 107.5 335 L 108 340.5 L 107 340.5 L 107.5 335 Z " /><path fill="rgb(0,0,0)" stroke="rgb(0,0,0)" stroke-width="1" opacity="0.7764705882352941" d="M 433.5 344 L 434 349.5 L 433 349.5 L 433.5 344 Z " /><path fill="rgb(0,0,0)" stroke="rgb(0,0,0)" stroke-width="1" opacity="0.7764705882352941" d="M 78.5 345 L 79 350.5 L 78 350.5 L 78.5 345 Z " /><path fill="rgb(0,0,0)" stroke="rgb(0,0,0)" stroke-width="1" opacity="0.7764705882352941" d="M 108.5 347 L 109 352.5 L 108 352.5 L 108.5 347 Z " /><path fill="rgb(0,0,0)" stroke="rgb(0,0,0)" stroke-width="1" opacity="0.7764705882352941" d="M 403.5 347 L 404 352.5 L 403 352.5 L 403.5 347 Z " /><path fill="rgb(0,0,0)" stroke="rgb(0,0,0)" stroke-width="1" opacity="0.7764705882352941" d="M 79.5 357 L 80 362.5 L 79 362.5 L 79.5 357 Z " /><path fill="rgb(0,0,0)" stroke="rgb(0,0,0)" stroke-width="1" opacity="0.7764705882352941" d="M 432.5 357 L 433 362.5 L 432 362.5 L 432.5 357 Z " /><path fill="rgb(0,0,0)" stroke="rgb(0,0,0)" stroke-width="1" opacity="0.7764705882352941" d="M 109.5 359 L 110 364.5 L 109 364.5 L 109.5 359 Z " /><path fill="rgb(0,0,0)" stroke="rgb(0,0,0)" stroke-width="1" opacity="0.7764705882352941" d="M 402.5 359 L 403 364.5 L 402 364.5 L 402.5 359 Z " /><path fill="rgb(0,0,0)" stroke="rgb(0,0,0)" stroke-width="1" opacity="0.7764705882352941" d="M 80.5 369 L 81 374.5 L 80 374.5 L 80.5 369 Z " /><path fill="rgb(0,0,0)" stroke="rgb(0,0,0)" stroke-width="1" opacity="0.7764705882352941" d="M 431.5 369 L 432 374.5 L 431 374.5 L 431.5 369 Z " /><path fill="rgb(0,0,0)" stroke="rgb(0,0,0)" stroke-width="1" opacity="0.7764705882352941" d="M 110.5 371 L 111 376.5 L 110 376.5 L 110.5 371 Z " /><path fill="rgb(0,0,0)" stroke="rgb(0,0,0)" stroke-width="1" opacity="0.7764705882352941" d="M 401.5 371 L 402 376.5 L 401 376.5 L 401.5 371 Z " /><path fill="rgb(0,0,0)" stroke="rgb(0,0,0)" stroke-width="1" opacity="0.7764705882352941" d="M 81.5 381 L 82 386.5 L 81 386.5 L 81.5 381 Z " /><path fill="rgb(0,0,0)" stroke="rgb(0,0,0)" stroke-width="1" opacity="0.7764705882352941" d="M 430.5 381 L 431 386.5 L 430 386.5 L 430.5 381 Z " /><path fill="rgb(0,0,0)" stroke="rgb(0,0,0)" stroke-width="1" opacity="0.7764705882352941" d="M 111.5 383 L 112 388.5 L 111 388.5 L 111.5 383 Z " /><path fill="rgb(0,0,0)" stroke="rgb(0,0,0)" stroke-width="1" opacity="0.7764705882352941" d="M 400.5 383 L 401 388.5 L 400 388.5 L 400.5 383 Z " /><path fill="rgb(0,0,0)" stroke="rgb(0,0,0)" stroke-width="1" opacity="0.7764705882352941" d="M 82.5 393 L 83 398.5 L 82 398.5 L 82.5 393 Z " /><path fill="rgb(0,0,0)" stroke="rgb(0,0,0)" stroke-width="1" opacity="0.7764705882352941" d="M 429.5 393 L 430 398.5 L 429 398.5 L 429.5 393 Z " /><path fill="rgb(0,0,0)" stroke="rgb(0,0,0)" stroke-width="1" opacity="0.7764705882352941" d="M 112.5 395 L 113 400.5 L 112 400.5 L 112.5 395 Z " /><path fill="rgb(0,0,0)" stroke="rgb(0,0,0)" stroke-width="1" opacity="0.7764705882352941" d="M 399.5 395 L 400 400.5 L 399 400.5 L 399.5 395 Z " /><path fill="rgb(0,0,0)" stroke="rgb(0,0,0)" stroke-width="1" opacity="0.7764705882352941" d="M 83.5 405 L 84 410.5 L 83 410.5 L 83.5 405 Z " /><path fill="rgb(0,0,0)" stroke="rgb(0,0,0)" stroke-width="1" opacity="0.7764705882352941" d="M 428.5 405 L 429 410.5 L 428 410.5 L 428.5 405 Z " /><path fill="rgb(0,0,0)" stroke="rgb(0,0,0)" stroke-width="1" opacity="0.7764705882352941" d="M 113.5 407 L 114 412.5 L 113 412.5 L 113.5 407 Z " /><path fill="rgb(0,0,0)" stroke="rgb(0,0,0)" stroke-width="1" opacity="0.7764705882352941" d="M 398.5 407 L 399 412.5 L 398 412.5 L 398.5 407 Z " /><path fill="rgb(0,0,0)" stroke="rgb(0,0,0)" stroke-width="1" opacity="0.7764705882352941" d="M 84.5 417 L 85 422.5 L 84 422.5 L 84.5 417 Z " /><path fill="rgb(0,0,0)" stroke="rgb(0,0,0)" stroke-width="1" opacity="0.7764705882352941" d="M 427.5 417 L 428 422.5 L 427 422.5 L 427.5 417 Z " /><path fill="rgb(0,0,0)" stroke="rgb(0,0,0)" stroke-width="1" opacity="0.7764705882352941" d="M 114.5 419 L 115 424.5 L 114 424.5 L 114.5 419 Z " /><path fill="rgb(0,0,0)" stroke="rgb(0,0,0)" stroke-width="1" opacity="0.7764705882352941" d="M 397.5 419 L 398 424.5 L 397 424.5 L 397.5 419 Z " /><path fill="rgb(0,0,0)" stroke="rgb(0,0,0)" stroke-width="1" opacity="0.7764705882352941" d="M 85.5 429 L 86 434.5 L 85 434.5 L 85.5 429 Z " /><path fill="rgb(0,0,0)" stroke="rgb(0,0,0)" stroke-width="1" opacity="0.7764705882352941" d="M 426.5 429 L 427 434.5 L 426 434.5 L 426.5 429 Z " /><path fill="rgb(0,0,0)" stroke="rgb(0,0,0)" stroke-width="1" opacity="0.7764705882352941" d="M 115.5 431 L 116 436.5 L 115 436.5 L 115.5 431 Z " /><path fill="rgb(0,0,0)" stroke="rgb(0,0,0)" stroke-width="1" opacity="0.7764705882352941" d="M 396.5 431 L 397 436.5 L 396 436.5 L 396.5 431 Z " /><path fill="rgb(0,0,0)" stroke="rgb(0,0,0)" stroke-width="1" opacity="0.7764705882352941" d="M 86.5 441 L 87 446.5 L 86 446.5 L 86.5 441 Z " /><path fill="rgb(0,0,0)" stroke="rgb(0,0,0)" stroke-width="1" opacity="0.7764705882352941" d="M 425.5 441 L 426 446.5 L 425 446.5 L 425.5 441 Z " /><path fill="rgb(0,0,0)" stroke="rgb(0,0,0)" stroke-width="1" opacity="0.7764705882352941" d="M 116.5 443 L 117 448.5 L 116 448.5 L 116.5 443 Z " /><path fill="rgb(0,0,0)" stroke="rgb(0,0,0)" stroke-width="1" opacity="0.7764705882352941" d="M 152.5 443 L 153.5 445 L 152.5 443 Z " /><path fill="rgb(0,0,0)" stroke="rgb(0,0,0)" stroke-width="1" opacity="0.7764705882352941" d="M 242.5 443 L 243.5 445 L 242.5 443 Z " /><path fill="rgb(0,0,0)" stroke="rgb(0,0,0)" stroke-width="1" opacity="0.7764705882352941" d="M 332.5 443 L 333.5 445 L 332.5 443 Z " /><path fill="rgb(0,0,0)" stroke="rgb(0,0,0)" stroke-width="1" opacity="0.7764705882352941" d="M 395.5 443 L 396 448.5 L 395 448.5 L 395.5 443 Z " /><path fill="rgb(0,0,0)" stroke="rgb(0,0,0)" stroke-width="1" opacity="0.7764705882352941" d="M 154.5 446 L 156.5 449 L 154.5 446 Z " /><path fill="rgb(0,0,0)" stroke="rgb(0,0,0)" stroke-width="1" opacity="0.7764705882352941" d="M 177.5 446 L 175.5 449 L 177.5 446 Z " /><path fill="rgb(0,0,0)" stroke="rgb(0,0,0)" stroke-width="1" opacity="0.7764705882352941" d="M 244.5 446 L 246.5 449 L 244.5 446 Z " /><path fill="rgb(0,0,0)" stroke="rgb(0,0,0)" stroke-width="1" opacity="0.7764705882352941" d="M 267.5 446 L 265.5 449 L 267.5 446 Z " /><path fill="rgb(0,0,0)" stroke="rgb(0,0,0)" stroke-width="1" opacity="0.7764705882352941" d="M 334.5 446 L 336.5 449 L 334.5 446 Z " /><path fill="rgb(0,0,0)" stroke="rgb(0,0,0)" stroke-width="1" opacity="0.7764705882352941" d="M 357.5 446 L 355.5 449 L 357.5 446 Z " /><path fill="rgb(0,0,0)" stroke="rgb(0,0,0)" stroke-width="1" opacity="0.7764705882352941" d="M 158.5 449 L 159.5 451 L 158.5 449 Z " /><path fill="rgb(0,0,0)" stroke="rgb(0,0,0)" stroke-width="1" opacity="0.7764705882352941" d="M 173.5 449 L 172.5 451 L 173.5 449 Z " /><path fill="rgb(0,0,0)" stroke="rgb(0,0,0)" stroke-width="1" opacity="0.7764705882352941" d="M 248.5 449 L 249.5 451 L 248.5 449 Z " /><path fill="rgb(0,0,0)" stroke="rgb(0,0,0)" stroke-width="1" opacity="0.7764705882352941" d="M 263.5 449 L 262.5 451 L 263.5 449 Z " /><path fill="rgb(0,0,0)" stroke="rgb(0,0,0)" stroke-width="1" opacity="0.7764705882352941" d="M 338.5 449 L 339.5 451 L 338.5 449 Z " /><path fill="rgb(0,0,0)" stroke="rgb(0,0,0)" stroke-width="1" opacity="0.7764705882352941" d="M 353.5 449 L 352.5 451 L 353.5 449 Z " /><path fill="rgb(0,0,0)" stroke="rgb(0,0,0)" stroke-width="1" opacity="0.7764705882352941" d="M 87.5 453 L 88 458.5 L 87 458.5 L 87.5 453 Z " /><path fill="rgb(0,0,0)" stroke="rgb(0,0,0)" stroke-width="1" opacity="0.7764705882352941" d="M 424.5 453 L 425 458.5 L 424 458.5 L 424.5 453 Z " /><path fill="rgb(0,0,0)" stroke="rgb(0,0,0)" stroke-width="1" opacity="0.7764705882352941" d="M 117.5 455 L 118 460.5 L 117 460.5 L 117.5 455 Z " /><path fill="rgb(0,0,0)" stroke="rgb(0,0,0)" stroke-width="1" opacity="0.7764705882352941" d="M 394.5 455 L 395 460.5 L 394 460.5 L 394.5 455 Z " /><path fill="rgb(0,0,0)" stroke="rgb(0,0,0)" stroke-width="1" opacity="0.7764705882352941" d="M 88.5 465 L 89 470.5 L 88 470.5 L 88.5 465 Z " /><path fill="rgb(0,0,0)" stroke="rgb(0,0,0)" stroke-width="1" opacity="0.7764705882352941" d="M 423.5 465 L 424 470.5 L 423 470.5 L 423.5 465 Z " /><path fill="rgb(0,0,0)" stroke="rgb(0,0,0)" stroke-width="1" opacity="0.7764705882352941" d="M 393.5 467 L 394 470.5 L 393 470.5 L 393.5 467 Z " /><path fill="rgb(0,0,0)" stroke="rgb(0,0,0)" stroke-width="1" opacity="0.7764705882352941" d="M 118.5 468 L 119 470.5 L 118 470.5 L 118.5 468 Z " /><path fill="rgb(0,0,0)" stroke="rgb(0,0,0)" stroke-width="1" opacity="0.7764705882352941" d="M 119.5 472 L 121 474.5 L 119 473.5 L 119.5 472 Z " /><path fill="rgb(0,0,0)" stroke="rgb(0,0,0)" stroke-width="1" opacity="0.7764705882352941" d="M 392.5 472 L 393 473.5 L 391 474.5 L 392.5 472 Z " /><path fill="rgb(0,0,0)" stroke="rgb(0,0,0)" stroke-width="1" opacity="0.7764705882352941" d="M 121.5 476 L 123.5 479 L 121.5 476 Z " /><path fill="rgb(0,0,0)" stroke="rgb(0,0,0)" stroke-width="1" opacity="0.7764705882352941" d="M 390.5 476 L 388.5 479 L 390.5 476 Z " /><path fill="rgb(0,0,0)" stroke="rgb(0,0,0)" stroke-width="1" opacity="0.7764705882352941" d="M 95.5 491 L 96.5 493 L 95.5 491 Z " /><path fill="rgb(0,0,0)" stroke="rgb(0,0,0)" stroke-width="1" opacity="0.7764705882352941" d="M 98.5 495 L 104.5 502 L 98.5 495 Z " /><path fill="rgb(0,0,0)" stroke="rgb(0,0,0)" stroke-width="1" opacity="0.7764705882352941" d="M 413.5 495 L 407.5 502 L 413.5 495 Z " /><path fill="rgb(0,0,0)" stroke="rgb(0,0,0)" stroke-width="1" opacity="0.7764705882352941" d="M 107.5 503 L 108.5 505 L 107.5 503 Z " /><path fill="rgb(0,0,0)" stroke="rgb(0,0,0)" stroke-width="1" opacity="0.7764705882352941" d="M 404.5 503 L 403.5 505 L 404.5 503 Z " /><path fill="rgb(0,0,0)" stroke="rgb(0,0,0)" stroke-width="1" opacity="0.7764705882352941" d="M 112.5 506 L 115 507.5 L 113.5 508 L 112.5 506 Z " /><path fill="rgb(0,0,0)" stroke="rgb(0,0,0)" stroke-width="1" opacity="0.7764705882352941" d="M 399.5 506 L 398.5 508 L 397 507.5 L 399.5 506 Z " /><path fill="rgb(0,0,0)" stroke="rgb(0,0,0)" stroke-width="1" opacity="0.7764705882352941" d="M 121.5 510 L 124 510.5 L 121.5 511 L 121.5 510 Z " /><path fill="rgb(0,0,0)" stroke="rgb(0,0,0)" stroke-width="1" opacity="0.7764705882352941" d="M 388.5 510 L 391 510.5 L 388.5 511 L 388.5 510 Z " /><path fill="rgb(0,0,0)" stroke="rgb(0,0,0)" stroke-width="1" opacity="0.7764705882352941" d="M 126.5 511 L 131 511.5 L 126.5 512 L 126.5 511 Z " /><path fill="rgb(0,0,0)" stroke="rgb(0,0,0)" stroke-width="1" opacity="0.7764705882352941" d="M 381.5 511 L 386 511.5 L 381.5 512 L 381.5 511 Z " /><path fill="rgb(0,0,0)" stroke="rgb(0,0,0)" stroke-width="1" opacity="1" d="M 215.5 0 L 296.5 0 Q 298 2.5 303.5 1 Q 320.9 5.1 330 17.5 L 337 30.5 L 346 62 L 437.5 62 Q 439.3 64.7 445.5 63 L 454.5 66 L 469 76.5 Q 476.8 84.7 480 97.5 Q 478.2 103.8 481 105.5 L 481 138.5 Q 479.9 145.9 474.5 149 L 467.5 152 L 449 152 L 423 474.5 Q 419 493.5 405.5 503 L 394.5 509 L 380.5 512 L 131.5 512 L 120.5 510 L 109.5 505 L 97 493.5 Q 91.3 485.7 89 474.5 L 63 152 L 44.5 152 Q 37.1 150.9 34 145.5 L 31 138.5 L 31 105.5 Q 33.7 103.8 32 97.5 L 35 88.5 L 44 75 L 57.5 66 L 66.5 63 Q 72.8 64.7 74.5 62 L 166 62 L 175 30.5 Q 179.6 17.6 189.5 10 L 201.5 3 L 215.5 0 Z M 214 30 L 206 34 L 203 40 L 197 61 L 197 62 L 316 62 L 309 40 L 306 35 L 299 30 L 214 30 Z M 72 92 L 68 94 L 61 103 L 61 122 L 62 122 L 451 122 L 451 103 L 449 99 L 441 92 L 72 92 Z M 92 152 L 93 171 L 94 172 L 94 183 L 95 184 L 95 195 L 96 196 L 97 220 L 98 221 L 98 232 L 99 233 L 99 244 L 100 245 L 100 256 L 101 257 L 101 268 L 102 269 L 102 280 L 103 281 L 103 292 L 104 293 L 104 304 L 105 305 L 105 316 L 106 317 L 106 328 L 107 329 L 110 377 L 111 378 L 111 389 L 112 390 L 112 401 L 113 402 L 113 413 L 114 414 L 114 425 L 115 426 L 115 437 L 116 438 L 116 449 L 117 450 L 117 461 L 118 462 L 118 471 L 121 477 L 129 482 L 384 482 L 389 479 L 393 474 L 394 462 L 395 461 L 399 402 L 400 401 L 400 390 L 401 389 L 401 378 L 402 377 L 402 366 L 403 365 L 403 354 L 404 353 L 404 341 L 405 340 L 409 281 L 410 280 L 410 269 L 411 268 L 411 257 L 412 256 L 412 245 L 413 244 L 413 233 L 414 232 L 414 221 L 415 220 L 415 208 L 416 207 L 416 196 L 417 195 L 417 184 L 418 183 L 418 172 L 419 171 L 419 160 L 420 159 Q 421 152 420 152 L 92 152 Z " /><path fill="rgb(0,0,0)" stroke="rgb(0,0,0)" stroke-width="1" opacity="1" d="M 164.5 182 L 171.5 183 L 179 189.5 L 181 195.5 L 181 438.5 Q 179.9 445.9 174.5 449 Q 171.3 452.3 164.5 452 Q 157.1 450.9 154 445.5 L 151 438.5 L 151 195.5 Q 152.2 187.2 158.5 184 L 164.5 182 Z " /><path fill="rgb(0,0,0)" stroke="rgb(0,0,0)" stroke-width="1" opacity="1" d="M 254.5 182 L 261.5 183 L 269 189.5 L 271 195.5 L 271 438.5 Q 269.9 445.9 264.5 449 Q 261.3 452.3 254.5 452 Q 247.1 450.9 244 445.5 L 241 438.5 L 241 195.5 Q 242.2 187.2 248.5 184 L 254.5 182 Z " /><path fill="rgb(0,0,0)" stroke="rgb(0,0,0)" stroke-width="1" opacity="1" d="M 344.5 182 L 351.5 183 L 359 189.5 L 361 195.5 L 361 438.5 Q 359.9 445.9 354.5 449 Q 351.3 452.3 344.5 452 Q 337.1 450.9 334 445.5 L 331 438.5 L 331 195.5 Q 332.2 187.2 338.5 184 L 344.5 182 Z " /></svg>